<svg xmlns="http://www.w3.org/2000/svg" viewBox="0 0 512 512">
  <rect width="512" height="512" rx="112" fill="#6958d6"/>
  <circle cx="384" cy="132" r="88" fill="#7bd8c6" opacity=".55"/>
  <circle cx="105" cy="408" r="122" fill="#f2b64a" opacity=".38"/>
  <path fill="#fff" d="M256 145c-44-51-109-16-92 47-48-23-87 35-45 75-59 10-57 89 12 93-5 66 75 82 102 27 29 55 108 34 101-28 61 14 87-69 31-93 39-45-4-100-51-72 16-60-37-88-58-49Zm0 93a38 38 0 1 1 0 76 38 38 0 0 1 0-76Zm-75 97a30 30 0 1 1 0 60 30 30 0 0 1 0-60Zm150 0a30 30 0 1 1 0 60 30 30 0 0 1 0-60Z"/>
  <path fill="#e85d75" d="M256 254c-15-18-42 0-27 22l27 34 27-34c15-22-12-40-27-22Z"/>
</svg>
